<svg width="266" height="41" viewBox="0 0 266 41" fill="none" xmlns="http://www.w3.org/2000/svg">
<path d="M241.478 26.3035C241.478 24.1608 241.79 22.1599 242.415 20.301C243.053 18.4421 243.94 16.8387 245.075 15.4906C247.502 12.6384 250.574 11.2123 254.292 11.2123C257.854 11.2123 260.706 12.5532 262.848 15.2352C264.934 17.8462 265.977 21.3014 265.977 25.601C265.977 30.4541 264.714 34.2357 262.189 36.946C259.932 39.3725 257.038 40.5858 253.504 40.5858C250.084 40.5858 247.232 39.2661 244.948 36.6268C242.635 33.9448 241.478 30.5037 241.478 26.3035ZM248.928 33.0296C249.552 33.8384 250.297 34.4699 251.163 34.9239C252.028 35.3638 252.908 35.5838 253.802 35.5838C254.71 35.5838 255.555 35.3851 256.335 34.9878C257.116 34.5905 257.818 33.9945 258.442 33.1998C259.847 31.3835 260.55 29.0067 260.55 26.0693C260.55 23.061 259.954 20.6558 258.762 18.8537C257.556 17.0799 255.924 16.193 253.866 16.193C251.794 16.193 250.12 17.1154 248.843 18.9601C247.552 20.819 246.906 23.2242 246.906 26.1757C246.906 28.9996 247.58 31.2842 248.928 33.0296Z" fill="#343434"/>
<path d="M215.787 36.6693C214.765 35.4632 213.999 34.0513 213.488 32.4336C212.977 30.8159 212.722 29.2124 212.722 27.6231C212.722 26.0338 212.85 24.5794 213.105 23.2597C213.36 21.94 213.751 20.6842 214.276 19.4922C214.801 18.3002 215.468 17.2005 216.276 16.193C217.085 15.1855 218.036 14.3128 219.129 13.5749C221.484 11.9998 224.308 11.2123 227.6 11.2123C230.083 11.2123 232.219 11.6309 234.007 12.4681L234.199 17.7043L234.113 17.832C232.552 16.6826 230.254 16.1079 227.217 16.1079C224.932 16.1079 222.96 16.8812 221.3 18.4279C219.71 19.9179 218.667 21.8194 218.171 24.1324C219.93 22.3728 222.151 21.2376 224.833 20.7267C225.628 20.5848 226.564 20.5139 227.643 20.5139C228.721 20.5139 229.863 20.7267 231.07 21.1524C232.276 21.5782 233.305 22.1883 234.156 22.983C235.972 24.6858 236.88 26.942 236.88 29.7517C236.88 32.8735 235.703 35.4703 233.347 37.542C231.063 39.5712 228.267 40.5858 224.961 40.5858C221.058 40.5858 218.001 39.2803 215.787 36.6693ZM218.362 30.6031C218.831 32.1782 219.604 33.4198 220.682 34.328C221.761 35.2219 223.13 35.6689 224.79 35.6689C226.692 35.6689 228.26 35.1581 229.495 34.1364C230.786 33.0863 231.431 31.6815 231.431 29.9219C231.431 28.6023 231.006 27.5167 230.154 26.6653C229.232 25.7429 227.983 25.2818 226.408 25.2818C224.407 25.2818 222.662 25.8068 221.172 26.8569C219.767 27.8644 218.831 29.1131 218.362 30.6031Z" fill="#343434"/>
<path d="M203.335 23.4938C206.755 24.9412 208.465 27.3961 208.465 30.8585C208.465 33.6114 207.337 35.896 205.08 37.7123C202.711 39.628 199.575 40.5858 195.672 40.5858C191.912 40.5858 188.89 39.7131 186.605 37.9677L186.52 32.2846L186.733 32.0292C188.435 34.3422 191.401 35.4986 195.63 35.4986C200.568 35.4986 203.037 33.8597 203.037 30.5818C203.037 29.404 202.313 28.4816 200.866 27.8147C199.56 27.2187 198.042 26.9207 196.311 26.9207C193.927 26.9207 192.096 27.3251 190.819 28.134L190.692 27.985L190.905 22.9617C192.622 22.4934 194.424 22.2593 196.311 22.2593H197.418C197.815 22.2593 198.205 22.2735 198.588 22.3018C199.497 21.7626 200.086 20.9538 200.355 19.8753C200.44 19.5773 200.483 19.2794 200.483 18.9814C200.483 18.6692 200.391 18.357 200.206 18.0448C200.022 17.7184 199.745 17.4346 199.376 17.1934C198.567 16.64 197.652 16.3633 196.63 16.3633C195.623 16.3633 194.771 16.42 194.076 16.5336C193.381 16.6471 192.707 16.8103 192.054 17.0231C190.649 17.4914 189.599 18.0732 188.904 18.7685L188.797 18.6621L188.542 13.2131C190.826 11.8792 193.601 11.2123 196.864 11.2123C199.433 11.2123 201.575 11.8012 203.292 12.9789C205.137 14.2561 206.06 15.9589 206.06 18.0874C206.06 19.251 205.804 20.301 205.293 21.2376C204.782 22.1599 204.13 22.912 203.335 23.4938ZM196.609 22.834C196.964 22.834 197.262 22.8056 197.503 22.7488L196.609 22.834Z" fill="#343434"/>
<path d="M169.988 35.371C171.819 35.371 173.075 34.8956 173.756 33.9449H173.926L173.99 38.883C173.295 39.5783 172.003 40.0395 170.116 40.2666C169.605 40.3375 168.967 40.373 168.2 40.373C167.448 40.373 166.625 40.2311 165.731 39.9473C164.852 39.6635 164.1 39.2023 163.475 38.5637C162.184 37.2441 161.538 35.1794 161.538 32.3698V22.7063H158.324C158.31 22.2948 158.303 21.8762 158.303 21.4505V18.1726C158.303 17.9313 158.31 17.8107 158.324 17.8107H161.538V11.7444H166.753V17.8107H172.606V22.7063H166.753V31.3906C166.753 33.6185 167.37 34.8885 168.605 35.2007C169.002 35.3142 169.463 35.371 169.988 35.371Z" fill="#1E88E5"/>
<path d="M140.211 37.3292C140.211 38.5779 140.267 39.4861 140.381 40.0537H135.038V17.8107H140.211V19.7051C142.084 18.1584 144.084 17.385 146.213 17.385C148.54 17.385 150.399 18.1797 151.79 19.7689C153.18 21.344 153.876 23.4229 153.876 26.0055V34.477C153.876 36.8751 153.911 38.3154 153.982 38.7979C154.053 39.2803 154.145 39.5925 154.259 39.7344C154.386 39.8763 154.493 40.004 154.578 40.1176L154.535 40.2027C153.386 40.1034 152.549 40.0537 152.024 40.0537H150.534C150.08 40.0537 149.47 40.075 148.703 40.1176V28.5171C148.703 24.3594 147.44 22.2806 144.915 22.2806C143.041 22.2806 141.473 23.2455 140.211 25.1754V37.3292Z" fill="#1E88E5"/>
<path d="M108.049 29.1131C108.049 27.4529 108.333 25.9133 108.9 24.4943C109.468 23.0752 110.269 21.8336 111.305 20.7693C113.519 18.5131 116.414 17.385 119.99 17.385C123.012 17.385 125.439 18.3854 127.269 20.3862C129.071 22.3161 129.972 24.7426 129.972 27.6657C129.972 28.7868 129.887 29.553 129.717 29.9645C128.298 30.3619 125.41 30.5605 121.054 30.5605H113.562C113.931 32.0789 114.789 33.2637 116.137 34.1151C117.485 34.9524 119.238 35.371 121.394 35.371C123.651 35.371 125.588 34.9665 127.205 34.1577C127.631 33.9449 127.95 33.7462 128.163 33.5617C128.135 34.1577 128.099 34.7679 128.057 35.3923L127.823 38.7127C126.744 39.4506 124.999 39.9615 122.586 40.2453C121.877 40.3304 121.196 40.373 120.543 40.373C116.939 40.373 113.959 39.3229 111.603 37.2228C109.234 35.1084 108.049 32.4052 108.049 29.1131ZM124.311 26.4312C123.729 23.3803 122.069 21.8549 119.33 21.8549C117.173 21.8549 115.534 22.7843 114.413 24.6432C114.072 25.2109 113.81 25.8352 113.625 26.5163C113.966 26.5305 114.385 26.5447 114.881 26.5589H116.456C116.981 26.5731 117.485 26.5802 117.968 26.5802H119.181C119.905 26.5802 120.614 26.5731 121.309 26.5589L123.055 26.4951C123.523 26.4809 123.942 26.4596 124.311 26.4312Z" fill="#1E88E5"/>
<path d="M97.4912 11.4677C98.6264 9.69394 99.8113 8.13303 101.046 6.78497L105.622 10.3822C105.012 11.1342 104.444 11.8721 103.919 12.5958C103.919 12.5958 103.373 13.3692 102.28 14.9159L97.4912 11.4677ZM103.089 37.6697C103.089 38.8901 103.118 39.6847 103.174 40.0537H97.7679V17.8107H103.089V37.6697Z" fill="#1E88E5"/>
<path d="M92.1699 37.6698C92.1699 38.8901 92.1983 39.6847 92.2551 40.0537H86.8486V8.33881H92.1699V37.6698Z" fill="#1E88E5"/>
<path d="M75.1631 11.2123C77.8167 11.2123 80.08 11.6735 81.9531 12.5958V19.1091L81.9105 19.1516C81.1159 17.9313 79.4415 17.1225 76.8872 16.7251C76.1352 16.5974 75.1844 16.5336 74.035 16.5336C72.8856 16.5336 71.7575 16.7535 70.6507 17.1934C69.5439 17.6191 68.6357 18.2293 67.9262 19.0239C66.5498 20.5707 65.8615 22.7772 65.8615 25.6436C65.8615 28.9783 66.7342 31.4616 68.4796 33.0934C69.927 34.4557 71.8427 35.1368 74.2266 35.1368C76.9227 35.1368 79.108 34.5621 80.7824 33.4127C81.3926 33.0012 81.9105 32.4903 82.3362 31.8802L82.4001 31.9227V37.8826C80.229 39.6847 77.3059 40.5858 73.6306 40.5858C69.3026 40.5858 65.9112 39.2094 63.4563 36.4565C61.1008 33.8313 59.923 30.3547 59.923 26.0267C59.923 21.4433 61.2143 17.832 63.7969 15.1926C66.4079 12.5391 70.1966 11.2123 75.1631 11.2123Z" fill="#1E88E5"/>
<path d="M46.9137 36.8201V16.0384L32.6772 30.2749V36.8201H24.8694V22.651L10.6268 8.41449V36.8201H0.612793V39.578H13.3846V15.0639L15.309 16.9944V39.8537H18.0668V19.7522L22.1116 23.7909V39.578H35.4289V31.4209L39.682 27.1677V39.8537H42.4337V24.4099L44.1559 22.6878V39.578H54.9972V36.8201H46.9137Z" fill="#1E88E5"/>
<path fill-rule="evenodd" clip-rule="evenodd" d="M46.9137 36.8201H54.9972V39.5779H44.1559V22.6878L42.4338 24.4099V39.8537H39.6821V27.1677L35.4289 31.4209V39.5779H22.1117V23.7909L18.0668 19.7522V39.8537H15.309V16.9944L13.3847 15.0639V39.5779H0.612851V36.8201H10.6268V8.41447L24.8695 22.651V36.8201H32.6772V30.2749L46.9137 16.0383V36.8201ZM32.0644 36.2073V30.021L47.5266 14.5588V36.2073H55.6101V40.1908H43.5431V24.1673L43.0467 24.6637V40.4666H39.0692V28.6473L36.0418 31.6747V40.1908H21.4988V24.045L18.6797 21.2302V40.4666H14.6962V17.2477L13.9975 16.5468V40.1908H0V36.2073H10.014V6.93536L25.4823 22.3971V36.2073H32.0644Z" fill="#1E88E5"/>
<path d="M28.6998 5.35025L41.2326 17.883L43.1815 15.9342L28.6998 1.45251L18.0117 12.1406L19.9606 14.0895L28.6998 5.35025Z" fill="#1E88E5"/>
<path fill-rule="evenodd" clip-rule="evenodd" d="M28.6998 5.35025L19.9606 14.0895L18.0117 12.1406L28.6998 1.45252L43.1815 15.9342L41.2326 17.8831L28.6998 5.35025ZM28.6998 6.21695L19.9606 14.9562L17.145 12.1406L28.6998 0.585815L44.0482 15.9342L41.2326 18.7498L28.6998 6.21695Z" fill="#1E88E5"/>
<path d="M27.9399 12.1774H25.5007V14.6165H27.9399V12.1774Z" fill="#1E88E5"/>
<path d="M31.9847 12.1774H29.5455V14.6165H31.9847V12.1774Z" fill="#1E88E5"/>
<path d="M27.9399 16.0139H25.5007V18.453H27.9399V16.0139Z" fill="#1E88E5"/>
<path d="M31.9847 16.0139H29.5455V18.453H31.9847V16.0139Z" fill="#1E88E5"/>
</svg>
